HIERARCHY
ROOT Hips
{
	OFFSET 0.000000 0.000000 0.000000 
	CHANNELS 6 Xposition Yposition Zposition Zrotation Yrotation Xrotation
	JOINT LeftUpLeg
	{
		OFFSET 1.363060 -1.794630 0.839290 
		CHANNELS 3 Zrotation Yrotation Xrotation
		JOINT LeftLeg
		{
			OFFSET 2.448110 -6.726130 0.000000 
			CHANNELS 3 Zrotation Yrotation Xrotation
			JOINT LeftFoot
			{
				OFFSET 2.562200 -7.039590 0.000000 
				CHANNELS 3 Zrotation Yrotation Xrotation
				JOINT LeftToeBase
				{
					OFFSET 0.157640 -0.433110 2.322550 
					CHANNELS 3 Zrotation Yrotation Xrotation
					End Site
					{
						OFFSET 0.000000 0.000000 0.000000 
					}
				}
			}
		}
	}
	JOINT RightUpLeg
	{
		OFFSET -1.305520 -1.794630 0.839290 
		CHANNELS 3 Zrotation Yrotation Xrotation
		JOINT RightLeg
		{
			OFFSET -2.542530 -6.985550 0.000000 
			CHANNELS 3 Zrotation Yrotation Xrotation
			JOINT RightFoot
			{
				OFFSET -2.568260 -7.056230 0.000000 
				CHANNELS 3 Zrotation Yrotation Xrotation
				JOINT RightToeBase
				{
					OFFSET -0.164730 -0.452590 2.363150 
					CHANNELS 3 Zrotation Yrotation Xrotation
					End Site
					{
						OFFSET 0.000000 0.000000 0.000000 
					}
				}
			}
		}
	}
	JOINT Spine
	{
		OFFSET 0.028270 2.035590 -0.193380 
		CHANNELS 3 Zrotation Yrotation Xrotation
		JOINT Spine1
		{
			OFFSET 0.056720 2.048850 -0.042750 
			CHANNELS 3 Zrotation Yrotation Xrotation
			JOINT Neck1
			{
				OFFSET -0.054170 1.746240 0.172020 
				CHANNELS 3 Zrotation Yrotation Xrotation
				JOINT Head
				{
					OFFSET 0.104070 1.761360 -0.123970 
					CHANNELS 3 Zrotation Yrotation Xrotation
					End Site
					{
						OFFSET 0.000000 0.000000 0.000000 
					}
				}
			}
			JOINT LeftArm
			{
				OFFSET 3.362410 1.200890 -0.311210 
				CHANNELS 3 Zrotation Yrotation Xrotation
				JOINT LeftForeArm
				{
					OFFSET 4.983000 -0.000000 -0.000000 
					CHANNELS 3 Zrotation Yrotation Xrotation
					JOINT LeftHand
					{
						OFFSET 3.483560 -0.000000 -0.000000 
						CHANNELS 3 Zrotation Yrotation Xrotation
						JOINT LeftHandIndex1
						{
							OFFSET 0.715260 -0.000000 -0.000000 
							CHANNELS 3 Zrotation Yrotation Xrotation
							End Site
							{
								OFFSET 0.000000 0.000000 0.000000 
							}
						}
					}
				}
			}
			JOINT RightArm
			{
				OFFSET -3.136600 1.374050 -0.404650 
				CHANNELS 3 Zrotation Yrotation Xrotation
				JOINT RightForeArm
				{
					OFFSET -5.241900 -0.000000 -0.000000 
					CHANNELS 3 Zrotation Yrotation Xrotation
					JOINT RightHand
					{
						OFFSET -3.444170 -0.000000 -0.000000 
						CHANNELS 3 Zrotation Yrotation Xrotation
						JOINT RightHandIndex1
						{
							OFFSET -0.622530 -0.000000 -0.000000 
							CHANNELS 3 Zrotation Yrotation Xrotation
							End Site
							{
								OFFSET 0.000000 0.000000 0.000000 
							}
						}
					}
				}
			}
		}
	}
}
MOTION
Frames: 6
Frame Time: 0.041667
-1.198181 18.156673 -1.625320 2.724571 -39.674850 -0.661347 -17.707321 -4.551728 1.942786 2.190468 10.422903 33.045222 1.314093 -7.521198 24.203792 0.671200 -5.238800 -14.591100 20.245582 0.658391 -20.373387 -0.812026 -7.721818 22.270192 0.577223 -4.970318 6.297624 -0.331500 -3.700200 10.234800 1.641486 0.131215 0.868110 1.218615 -0.116069 -3.403545 4.611786 -3.017432 16.013600 3.420400 -1.936600 12.455300 -80.933117 -0.646986 26.247071 16.289161 -23.149226 -4.137583 -1.100950 -2.215074 7.190963 -7.125000 0.000000 0.000000 82.671227 -7.748851 13.433969 -14.390327 21.587099 -2.960978 0.421812 -0.225534 7.426568 7.125000 0.000000 0.000000 
-1.304840 18.173964 -1.540776 2.319083 -39.802449 -0.549286 -17.291888 -4.866185 0.829476 2.695282 11.115277 35.351309 1.458164 -7.435138 26.028313 0.324200 -3.659800 -10.121500 20.752254 0.338919 -19.526441 -0.727659 -7.482506 21.654837 0.551536 -4.792243 6.189641 -0.328500 -3.683600 10.188200 1.699853 0.236854 0.866646 1.145676 -0.053466 -3.506548 4.525414 -3.098908 15.975459 3.366400 -1.979200 12.444000 -80.969680 -0.137426 26.708332 16.167983 -23.004960 -4.082792 -1.148326 -2.160283 7.242382 -7.125000 0.000000 0.000000 82.606778 -7.689326 13.655820 -14.502142 21.741987 -3.006935 0.422949 -0.217586 7.343521 7.125000 0.000000 0.000000 
-1.409790 18.188540 -1.457942 1.891649 -40.064745 -0.418443 -16.869147 -5.080564 -0.290972 3.226982 11.777544 37.608574 1.612584 -7.029499 27.798372 0.037000 -1.241100 -3.412400 21.323538 -0.030617 -18.726778 -0.647273 -7.242739 21.046663 0.493216 -4.479996 6.219576 -0.237900 -3.138900 8.665800 1.761442 0.367316 0.864205 1.069956 0.018900 -3.633163 4.590854 -3.147356 15.988783 3.408200 -2.003600 12.467200 -81.059354 0.369346 26.905425 16.061405 -22.875776 -4.031128 -1.129680 -2.217719 7.585466 -7.125000 0.000000 0.000000 82.479704 -7.654532 13.989681 -14.628367 21.920252 -3.060262 0.422212 -0.215351 7.234897 7.125000 0.000000 0.000000 
-1.513132 18.202916 -1.377018 1.519842 -40.326731 -0.344965 -16.479914 -5.249417 -1.414699 3.767059 12.397672 39.816093 1.754238 -6.946658 29.289096 0.012400 0.719800 1.978200 21.838937 -0.476921 -17.976290 -0.573632 -7.010466 20.465621 0.404140 -4.030674 6.337229 -0.191900 -2.820800 7.780300 1.806203 0.495153 0.871221 0.984371 0.089756 -3.752459 4.659358 -3.147296 15.859994 3.441800 -1.996300 12.396800 -81.136670 0.779636 26.954303 15.935749 -22.714051 -3.969779 -1.096338 -2.252028 8.140230 -7.125000 0.000000 0.000000 82.364505 -7.592622 14.371404 -14.767421 22.118699 -3.120289 0.419142 -0.218680 7.030364 7.125000 0.000000 0.000000 
-1.613658 18.215180 -1.299813 1.079636 -40.603960 -0.213251 -15.992834 -5.319774 -2.591052 4.300682 12.970003 41.949542 1.855947 -7.236908 30.348693 0.076300 1.781400 4.901800 22.356226 -0.700357 -17.164972 -0.510497 -6.800381 19.948362 0.340453 -3.683222 6.364031 -0.212000 -2.964600 8.180100 1.868425 0.635840 0.858853 0.905209 0.167353 -3.919863 4.667711 -3.103387 15.755609 3.455300 -1.979000 12.317300 -81.199328 1.215973 27.208495 15.812512 -22.557685 -3.911139 -1.082883 -2.280467 8.508622 -7.125000 0.000000 0.000000 82.196376 -7.627644 15.010596 -14.965547 22.391425 -3.203558 0.428062 -0.209672 6.668912 7.125000 0.000000 0.000000 
-1.711471 18.221915 -1.226228 0.603906 -40.888620 -0.038414 -15.478570 -5.365099 -3.758024 4.812351 13.488431 43.973716 1.861953 -7.843969 30.611235 0.098800 2.027300 5.581000 22.859068 -0.736388 -16.364568 -0.465427 -6.638959 19.562418 0.325475 -3.536499 6.158214 -0.246300 -3.193800 8.818700 1.909000 0.799727 0.866875 0.748086 0.254546 -4.017253 4.690537 -3.183450 15.754981 3.455600 -2.012000 12.324800 -81.217909 1.626124 27.531480 15.722862 -22.449181 -3.870251 -1.087606 -2.290040 8.867617 -7.125000 0.000000 0.000000 82.066777 -7.662327 15.716373 -15.225960 22.751712 -3.315532 0.435647 -0.188546 6.165566 7.125000 0.000000 0.000000 
